<svg width="106" height="106" viewBox="0 0 106 106" fill="none" xmlns="http://www.w3.org/2000/svg">
<path d="M105.6 52.8C105.6 23.6363 81.9638 0 52.8 0C23.6363 0 0 23.6363 0 52.8C0 77.55 17.0569 98.34 40.0538 104.053V68.9288H29.1637V52.8H40.0538V45.8494C40.0538 27.885 48.18 19.5525 65.835 19.5525C69.1763 19.5525 74.9513 20.2125 77.3231 20.8725V35.475C76.0856 35.3513 73.92 35.2688 71.2181 35.2688C62.5556 35.2688 59.2144 38.5481 59.2144 47.0663V52.8H76.4569L73.4869 68.9288H59.1938V105.208C85.3463 102.053 105.6 79.7981 105.6 52.8Z" fill="black"/>
</svg>
