<svg width="90" height="90" viewBox="0 0 90 90" fill="none" xmlns="http://www.w3.org/2000/svg">
<path d="M45.01 21.9251C32.2605 21.885 21.9002 32.2074 21.86 44.9598C21.8199 57.7123 32.14 68.0749 44.8896 68.115C57.6392 68.1552 67.9994 57.8328 68.0396 45.0803C68.0798 32.3279 57.7596 21.9653 45.01 21.9251ZM44.8896 30.0385C53.1617 29.9983 59.8879 36.6858 59.9281 44.9598C59.9682 53.2338 53.2822 59.9615 45.01 60.0017C36.7379 60.0418 30.0117 53.3543 29.9716 45.0803C29.9314 36.8063 36.6174 30.0787 44.8896 30.0385ZM63.6425 20.9813C63.6425 18.009 66.0519 15.5991 69.0234 15.5991C71.995 15.5991 74.4044 18.009 74.4044 20.9813C74.4044 23.9535 71.995 26.3634 69.0234 26.3634C66.0519 26.3634 63.6425 23.9535 63.6425 20.9813ZM89.6838 26.4437C89.3424 19.2341 87.696 12.8478 82.4155 7.58619C77.155 2.32456 70.7702 0.677786 63.5622 0.3163C56.1333 -0.105433 33.8667 -0.105433 26.4378 0.3163C19.2499 0.657704 12.865 2.30447 7.58449 7.5661C2.30396 12.8277 0.677635 19.214 0.31623 26.4236C-0.10541 33.8542 -0.10541 56.1257 0.31623 63.5563C0.657557 70.7659 2.30396 77.1522 7.58449 82.4138C12.865 87.6754 19.2298 89.3222 26.4378 89.6837C33.8667 90.1054 56.1333 90.1054 63.5622 89.6837C70.7702 89.3423 77.155 87.6955 82.4155 82.4138C87.676 77.1522 89.3224 70.7659 89.6838 63.5563C90.1054 56.1257 90.1054 33.8743 89.6838 26.4437ZM80.0864 71.5291C78.5204 75.4652 75.4886 78.4977 71.5332 80.0842C65.6101 82.4339 51.5555 81.8917 45.01 81.8917C38.4646 81.8917 24.3898 82.4138 18.4869 80.0842C14.5516 78.5178 11.5198 75.4853 9.93363 71.5291C7.5845 65.6047 8.12661 51.5469 8.12661 45C8.12661 38.4531 7.60458 24.3752 9.93363 18.4709C11.4997 14.5348 14.5315 11.5023 18.4869 9.91576C24.4099 7.5661 38.4646 8.10833 45.01 8.10833C51.5555 8.10833 65.6302 7.58619 71.5332 9.91576C75.4685 11.4822 78.5003 14.5147 80.0864 18.4709C82.4356 24.3953 81.8935 38.4531 81.8935 45C81.8935 51.5469 82.4356 65.6248 80.0864 71.5291Z" fill="black"/>
</svg>
