<svg width="93" height="93" viewBox="0 0 93 93" fill="none" xmlns="http://www.w3.org/2000/svg">
<path d="M13.2 0C5.91937 0 0 5.91937 0 13.2V79.2C0 86.4806 5.91937 92.4 13.2 92.4H79.2C86.4806 92.4 92.4 86.4806 92.4 79.2V13.2C92.4 5.91937 86.4806 0 79.2 0H13.2ZM60.6788 43.7869C64.7006 45.705 67.6294 48.6338 69.1762 52.2225C71.3213 57.2344 71.5275 65.4019 65.01 71.8988C60.0188 76.8694 53.9756 79.1175 45.3956 79.1794H45.3544C35.7019 79.1175 28.2769 75.8587 23.3062 69.5269C18.8719 63.8963 16.5825 56.0381 16.5 46.2V46.1587C16.5825 36.3206 18.8719 28.4831 23.3062 22.8319C28.2975 16.5 35.7225 13.2412 45.3544 13.1794H45.3956C55.0688 13.2412 62.5762 16.4794 67.7119 22.7906C70.2487 25.905 72.105 29.6587 73.2806 34.0106L67.7325 35.4956C66.7631 31.9481 65.2781 28.9163 63.3187 26.5031C59.3175 21.5737 53.2744 19.0575 45.375 18.9956C37.5375 19.0575 31.5975 21.5737 27.7406 26.4619C24.1313 31.0613 22.2544 37.6819 22.1925 46.1587C22.2544 54.6356 24.1313 61.2769 27.7406 65.8556C31.5975 70.7644 37.5169 73.2806 45.375 73.3219C52.4494 73.26 57.1106 71.5894 61.0087 67.6913C65.4431 63.2569 65.3606 57.8119 63.9375 54.4913C63.1125 52.5525 61.5863 50.9231 59.5444 49.6856C59.0494 53.3981 57.915 56.3269 56.1413 58.5956C53.79 61.5863 50.4281 63.2156 46.1587 63.4425C42.9206 63.6281 39.8063 62.8444 37.3725 61.2356C34.5056 59.3381 32.835 56.4506 32.6494 53.0887C32.2988 46.4475 37.5581 41.6831 45.7462 41.2087C48.6544 41.0437 51.3769 41.1675 53.8931 41.6006C53.5631 39.5588 52.8825 37.95 51.8719 36.7744C50.49 35.1656 48.345 34.3406 45.5194 34.32H45.4369C43.1681 34.32 40.0744 34.9594 38.0944 37.95L33.3506 34.6913C35.9906 30.69 40.2806 28.4831 45.4163 28.4831H45.54C54.1612 28.545 59.2762 33.9075 59.7919 43.2919C60.0806 43.4156 60.3694 43.5394 60.6581 43.6837L60.6788 43.7869ZM45.87 57.7087C49.3762 57.5231 53.3775 56.1413 54.0581 47.6437C52.2431 47.2519 50.2219 47.0456 48.0769 47.0456C47.4169 47.0456 46.7569 47.0662 46.0969 47.1075C40.1981 47.4375 38.2388 50.3044 38.3831 52.8619C38.5688 56.3062 42.3019 57.915 45.8906 57.7294L45.87 57.7087Z" fill="black"/>
</svg>
