<svg width="32" height="32" viewBox="0 0 32 32" fill="none" xmlns="http://www.w3.org/2000/svg">
<g clip-path="url(#clip0_511_1217)">
<path d="M16.004 0H15.996C7.17402 0 2.09939e-05 7.176 2.09939e-05 16C-0.00545721 19.37 1.06132 22.6544 3.04602 25.378L1.05202 31.322L7.20202 29.356C9.81076 31.0867 12.8734 32.0067 16.004 32C24.826 32 32 24.822 32 16C32 7.178 24.826 0 16.004 0Z" fill="#121212"/>
<path d="M25.3131 22.5939C24.9271 23.6839 23.3951 24.5879 22.1731 24.8519C21.3371 25.0299 20.2451 25.1719 16.5691 23.6479C11.8671 21.6999 8.83913 16.9219 8.60313 16.6119C8.37713 16.3019 6.70312 14.0819 6.70312 11.7859C6.70312 9.48987 7.86913 8.37187 8.33913 7.89187C8.72513 7.49787 9.36312 7.31787 9.97512 7.31787C10.1731 7.31787 10.3511 7.32787 10.5111 7.33587C10.9811 7.35587 11.2171 7.38387 11.5271 8.12587C11.9131 9.05587 12.8531 11.3519 12.9651 11.5879C13.0791 11.8239 13.1931 12.1439 13.0331 12.4539C12.8831 12.7739 12.7511 12.9159 12.5151 13.1879C12.2791 13.4599 12.0551 13.6679 11.8191 13.9599C11.6031 14.2139 11.3591 14.4859 11.6311 14.9559C11.9031 15.4159 12.8431 16.9499 14.2271 18.1819C16.0131 19.7719 17.4611 20.2799 17.9791 20.4959C18.3651 20.6559 18.8251 20.6179 19.1071 20.3179C19.4651 19.9319 19.9071 19.2919 20.3571 18.6619C20.6771 18.2099 21.0811 18.1539 21.5051 18.3139C21.9371 18.4639 24.2231 19.5939 24.6931 19.8279C25.1631 20.0639 25.4731 20.1759 25.5871 20.3739C25.6991 20.5719 25.6991 21.5019 25.3131 22.5939Z" fill="#4CAF50"/>
</g>
<defs>
<clipPath id="clip0_511_1217">
<rect width="32" height="32" fill="white"/>
</clipPath>
</defs>
</svg>
