<svg width="86" height="86" viewBox="0 0 86 86" fill="none" xmlns="http://www.w3.org/2000/svg">
<path d="M71.6005 85.2304H13.8328C6.20523 85.2304 0 79.0384 0 71.4263V13.8041C0 6.192 6.20523 0 13.8328 0H71.6005C79.2258 0 85.4311 6.192 85.4311 13.8041V71.4285C85.4311 79.0406 79.2258 85.2304 71.6005 85.2304ZM30.2764 60.791L18.6289 63.8076L22.9907 52.4071L22.5629 51.4743C20.4841 46.9279 19.9323 41.8309 20.9899 36.9449C22.0475 32.0589 24.6578 27.6464 28.4307 24.3667C38.0804 15.9784 52.7004 17.0015 61.0887 26.649C69.477 36.2986 68.4538 50.9186 58.8042 59.3069C55.0311 62.5867 50.2981 64.5575 45.3124 64.9247C40.3266 65.292 35.3559 64.036 31.143 61.3445L30.2786 60.791H30.2764ZM24.6335 19.9961C20.0521 23.9787 16.8388 29.3007 15.4478 35.2096C14.0569 41.1184 14.5587 47.3151 16.8825 52.9231L10.9198 70.5112L28.9203 66.7713C34.1499 69.8518 40.2156 71.2106 46.2597 70.6554C52.3038 70.1002 58.0204 67.6592 62.6014 63.6775C74.6634 53.1921 75.9424 34.916 65.457 22.8539C54.9716 10.7897 36.6933 9.51292 24.6313 20.0005L24.6335 19.9961ZM55.6663 48.2945L55.2252 48.0343C54.0565 47.3066 51.4324 45.7432 50.912 45.5094C49.8447 45.0023 49.0443 45.0243 48.2813 45.9835C47.9329 46.4246 46.967 47.4058 46.107 48.2372C46.0321 48.3099 46.1291 48.3055 45.8865 48.1534C41.6086 45.5271 39.9525 43.9217 38.1818 40.1752C38.506 39.8952 39.5446 38.8874 40.1003 38.0561C40.173 37.9458 40.2458 37.8356 40.3142 37.7231C40.7111 37.0616 40.6978 36.4133 40.431 35.7341C39.9966 34.6359 36.3802 28.9048 35.4783 28.8254C35.0199 28.7933 34.5598 28.8563 34.1268 29.0104C33.6938 29.1644 33.2974 29.4063 32.9623 29.7207C33.0108 29.6766 32.5984 30.0515 32.4507 30.1904C32.1983 30.4303 31.9604 30.6851 31.7384 30.9534C30.7461 32.1574 30.0978 33.6392 29.9324 35.518C29.7869 37.1829 30.1794 38.9382 30.9291 40.7045C31.3216 41.6262 31.6304 42.1929 32.1045 42.9757C31.8398 42.5612 32.8013 44.1753 33.3393 44.9912C34.2434 46.3628 35.271 47.719 36.4397 49.0112C38.3075 51.0774 40.3605 52.7819 42.6009 53.9948C46.3694 56.0279 48.1953 56.5417 50.6893 56.3917C52.5548 56.2793 55.3553 54.8085 56.1095 53.1502C56.7931 51.6463 57.0797 49.9991 56.7335 49.2978C56.6233 49.0288 56.4028 48.7907 56.0852 48.5635C55.9494 48.468 55.8096 48.3783 55.6663 48.2945Z" fill="black"/>
</svg>
