<svg width="113" height="80" viewBox="0 0 113 80" fill="none" xmlns="http://www.w3.org/2000/svg">
<path d="M110.282 12.3956C109.003 7.5075 105.167 3.67125 100.32 2.37188C91.5544 0 56.3269 0 56.3269 0C56.3269 0 21.0994 0 12.3131 2.37188C7.46625 3.67125 3.65063 7.5075 2.35125 12.3956C3.93391e-07 21.2438 0 39.6825 0 39.6825C0 39.6825 3.93391e-07 58.1213 2.35125 66.9694C3.65063 71.8369 7.46625 75.5288 12.3131 76.8281C21.0994 79.2 56.3269 79.2 56.3269 79.2C56.3269 79.2 91.5544 79.2 100.341 76.8281C105.188 75.5288 109.003 71.8369 110.303 66.9694C112.654 58.1213 112.654 39.6825 112.654 39.6825C112.654 39.6825 112.654 21.2438 110.303 12.3956H110.282ZM44.7975 56.43V22.935L74.2294 39.6825L44.7975 56.43Z" fill="black"/>
</svg>
